<svg xmlns="http://www.w3.org/2000/svg" xmlns:xlink="http://www.w3.org/1999/xlink" version="1.1" width="256" height="256" viewBox="0 0 256 256" xml:space="preserve">

<defs>
</defs>
<g style="stroke: none; stroke-width: 0; stroke-dasharray: none; stroke-linecap: butt; stroke-linejoin: miter; stroke-miterlimit: 10; fill: none; fill-rule: nonzero; opacity: 1;" transform="translate(1.4065934065934016 1.4065934065934016) scale(2.81 2.81)" >
	<path d="M 63.599 26.542 c 0.372 -1.874 -0.019 -3.717 -1.1 -5.192 c -1.08 -1.475 -2.72 -2.404 -4.618 -2.616 c -1.867 -0.211 -3.754 0.306 -5.315 1.449 L 20.782 43.458 l 0.157 -8.239 c 0.035 -1.841 -0.665 -3.545 -1.971 -4.798 c -1.353 -1.298 -3.17 -1.943 -5.123 -1.83 c -3.9 0.236 -7.132 3.527 -7.205 7.336 L 6.074 65.765 c -0.121 5.33 1.429 10.352 4.483 14.521 c 4.676 6.385 12.09 9.714 19.837 9.713 c 5.729 0 11.642 -1.82 16.764 -5.571 l 13.302 -9.742 c 3.258 -2.387 4.104 -6.794 1.886 -9.823 c -1.08 -1.475 -2.72 -2.404 -4.618 -2.615 c -0.012 -0.001 -0.025 -0.001 -0.037 -0.002 l 0.35 -0.256 c 1.56 -1.143 2.621 -2.786 2.985 -4.629 c 0.372 -1.873 -0.019 -3.718 -1.1 -5.192 c -1.08 -1.475 -2.72 -2.404 -4.618 -2.616 c -0.342 -0.038 -0.684 -0.044 -1.025 -0.034 c 0.435 -0.727 0.751 -1.52 0.917 -2.358 c 0.371 -1.874 -0.019 -3.718 -1.1 -5.193 c -1.08 -1.475 -2.72 -2.404 -4.618 -2.616 c -0.012 -0.001 -0.024 -0.001 -0.036 -0.002 l 11.167 -8.178 C 62.174 30.029 63.234 28.384 63.599 26.542 z" style="stroke: none; stroke-width: 1; stroke-dasharray: none; stroke-linecap: butt; stroke-linejoin: miter; stroke-miterlimit: 10; fill: rgb(251,206,157); fill-rule: nonzero; opacity: 1;" transform=" matrix(1 0 0 1 0 0) " stroke-linecap="round" />
	<path d="M 66.891 21.462 c -0.01 0 -0.02 0 -0.031 0 c -0.539 -0.01 -1.042 -0.274 -1.356 -0.712 l -3.147 -4.397 c -0.549 -0.766 -0.372 -1.831 0.394 -2.38 c 0.767 -0.549 1.832 -0.371 2.379 0.394 l 1.811 2.531 l 5.039 -6.535 c 0.576 -0.747 1.646 -0.885 2.393 -0.309 c 0.745 0.575 0.884 1.646 0.309 2.392 l -6.441 8.353 C 67.918 21.218 67.419 21.462 66.891 21.462 z" style="stroke: none; stroke-width: 1; stroke-dasharray: none; stroke-linecap: butt; stroke-linejoin: miter; stroke-miterlimit: 10; fill: rgb(75,109,170); fill-rule: nonzero; opacity: 1;" transform=" matrix(1 0 0 1 0 0) " stroke-linecap="round" />
	<path d="M 67.631 0 c -8.989 0 -16.302 7.313 -16.302 16.302 c 0 0.2 0.015 0.399 0.022 0.599 c 1.217 -0.743 2.545 -1.24 3.919 -1.471 C 55.72 8.996 61.085 3.897 67.631 3.897 c 6.84 0 12.406 5.565 12.406 12.406 c 0 6.84 -5.565 12.405 -12.406 12.405 c -0.368 0 -0.729 -0.03 -1.091 -0.061 c -0.463 1.331 -1.18 2.558 -2.118 3.623 c 1.048 0.209 2.116 0.335 3.208 0.335 c 8.989 0 16.302 -7.313 16.302 -16.302 C 83.933 7.313 76.62 0 67.631 0 z" style="stroke: none; stroke-width: 1; stroke-dasharray: none; stroke-linecap: butt; stroke-linejoin: miter; stroke-miterlimit: 10; fill: rgb(75,109,170); fill-rule: nonzero; opacity: 1;" transform=" matrix(1 0 0 1 0 0) " stroke-linecap="round" />
</g>
</svg>